<?xml version="1.0" encoding="utf-8"?>
<!-- Generator: Adobe Illustrator 24.0.0, SVG Export Plug-In . SVG Version: 6.00 Build 0)  -->
<svg version="1.1" id="jg_icon" xmlns="http://www.w3.org/2000/svg" xmlns:xlink="http://www.w3.org/1999/xlink" x="0px" y="0px"
	 viewBox="0 0 512 512" style="enable-background:new 0 0 512 512;" xml:space="preserve">
<style type="text/css">
	.st0{fill:#FFFFFF;}
</style>
<g>
	<path class="st0" d="M155.9,84.2c26.8,48.9,59.9,138.7,50.4,209.7c-4.7-11-18.9-74.1-110.3-111.9c22.1,25.2,55.2,42.6,61.5,148.2
		c0,0,53.6,44.1,97.7,97.7C302.5,326.9,233.1,180.3,155.9,84.2z"/>
	<path class="st0" d="M267.8,224.5c14.2,31.5,23.6,67.8,23.6,67.8s7.9-25.2,14.2-36.3c1.6-69.4,48.9-170.2,48.9-170.2
		S288.3,169.3,267.8,224.5z"/>
	<path class="st0" d="M305.7,379c28.4-31.5,48.9-50.4,48.9-50.4s4.7-99.3,61.5-146.6C367.1,208.7,305.7,276.5,305.7,379z"/>
</g>
</svg>
