<?xml version="1.0" encoding="utf-8"?>
<!-- Generator: Adobe Illustrator 24.0.0, SVG Export Plug-In . SVG Version: 6.00 Build 0)  -->
<svg version="1.1" id="sup_icon" xmlns="http://www.w3.org/2000/svg" xmlns:xlink="http://www.w3.org/1999/xlink" x="0px" y="0px"
	 viewBox="0 0 512 512" style="enable-background:new 0 0 512 512;" xml:space="preserve">
<style type="text/css">
	.st0{fill:#FFFFFF;}
</style>
<g>
	<path class="st0" d="M188.7,163.3H63.1c0,0,40.4,46.4,113.6,46.4L140.9,256l58.3,22.4l23.9-79.3L188.7,163.3z"/>
	<path class="st0" d="M448.9,163.3H323.3l-34.4,35.9l23.9,79.3l58.3-22.4l-35.9-46.4C408.5,209.6,448.9,163.3,448.9,163.3z"/>
	<polygon class="st0" points="312.8,119.9 300.9,96 256,96 211.1,96 199.2,119.9 256,187.2 	"/>
	<polygon class="st0" points="256,220.1 245.5,211.1 209.6,378.6 256,416 302.4,378.6 266.5,211.1 	"/>
</g>
</svg>
